# xmcd
#
# Track frame offsets:
#	150
#	12607
#	25995
#	37612
#	54370
#	66077
#	78832
#	88845
#	101302
#	115697
#	129512
#
# Disc length: 1972 seconds
#
# Revision: 1
# Processed by: cddbd v1.5PL3 Copyright (c) Steve Scherf et al.
# Submitted via: audiograbber 1.83.01
#
DISCID=7c07b20b
DTITLE=Pigalle Bluesband - Acoustic
DYEAR=1997
DGENRE=
TTITLE0=Crossroads
TTITLE1=Can't Be Satisfied
TTITLE2=Guitar Swing
TTITLE3=Hideaway
TTITLE4=From Four Till Late
TTITLE5=Travellin' Riverside
TTITLE6=It's Nobody's Fault But Mine
TTITLE7=Western Bound Blues
TTITLE8=Baby Please Don't Go
TTITLE9=Rollin' Man
TTITLE10=Things Bout Coming Our Way
EXTD=
EXTT0=
EXTT1=
EXTT2=
EXTT3=
EXTT4=
EXTT5=
EXTT6=
EXTT7=
EXTT8=
EXTT9=
EXTT10=
PLAYORDER=
